<svg id="Layer_1" version="1.1" viewBox="0 0 50 50" xml:space="preserve" xmlns="http://www.w3.org/2000/svg"><style>.st0{fill:#b7c5fd}.st5{fill:#aabafd}</style><path class="st0" d="M42.9 1.65l.08 27.22-34.82 20.1-.07-27.22z"/><path fill="#9aadfd" d="M42.9 1.65l-1.06-.62-34.82 20.1.08 27.21 1.06.62-.07-27.21z"/><path class="st5" d="M25.48 22.33l17.5 6.54-34.82 20.1z"/><path fill="#8ca1fd" d="M25.48 20l17.5 8.87-17.5-6.54L8.16 48.97l34.78-20.1-34.78 20.1z"/><g><path class="st0" d="M42.9 1.65L25.58 28.29l-17.5-6.54z"/><path class="st5" d="M42.9 1.65L25.58 30.38l-17.5-8.63 17.5 6.54z"/></g><g><path d="M31.71 2.18c-1.31-.77-3.15-.67-5.16.5-4 2.33-7.23 7.9-7.2 12.52 0 2.28.79 3.9 2.1 4.64l-1.13-.65c-1.31-.75-2.1-2.36-2.1-4.65-.03-4.62 3.2-10.19 7.2-12.52 2.04-1.14 3.85-1.27 5.17-.5l1.12.66z" fill="#6bb5fb"/><ellipse cx="26.58" cy="11.01" rx="10.22" ry="5.92" transform="rotate(-59.84 26.58 11.01)" fill="#4466fb"/><path d="M27.14 6.98c1.85-1.08 3.1-.19 3.1 1.79 0 1.76-.87 3.17-1.69 3.64-.55.32-.87.06-.9-.4v-.07a4.31 4.31 0 01-1.56 1.9c-.91.52-1.5.12-1.5-.98-.01-1.57 1.14-3.5 2.3-4.17.63-.37 1.07-.22 1.26.16l.12-.78.67-.38-.55 3.38a2 2 0 00-.02.25c0 .37.2.47.46.32.39-.22 1.07-1.11 1.07-2.67 0-1.86-1.12-2.56-2.8-1.6a8.01 8.01 0 00-3.5 6.09c0 1.8 1.18 2.5 2.81 1.57.7-.4 1.3-1 1.83-1.69l.17.2c-.6.8-1.31 1.46-2.04 1.88-1.78 1.04-3.11.25-3.12-1.74 0-2.44 1.84-5.52 3.89-6.7zm.6 4.25l.29-1.74c-.1-.29-.43-.57-1.02-.24a4.07 4.07 0 00-1.72 3.16c0 .72.37 1.04 1 .67a4.12 4.12 0 001.46-1.85" fill="#fff"/></g></svg>